# xmcd CD database file
# Copyright (C) 1993-1998 Ti Kan
# 
# Track frame offsets:
#     150
#     19917
#     47445
#     58767
#     90757
# 
# Disc length: 1429 seconds
# 
# Revision: 1
# Processed by: cddbd v1.4b41PL1 Copyright (c) Steve Scherf et al.
# Submitted via: DiscPlay 4.0.4
# 
DISCID=30059305
DTITLE=Lisa Lisa and Cult Jam With Full Force - Just Git it Together
DYEAR=1900
DGENRE=
TTITLE0=7 Edit Just Git it Together Just! (Together-Pella Mix) Together-Ruh 
TTITLE0=(F.F. on the Floor Mix) Git It! (Beats Injection Mix)
TTITLE1=
TTITLE2=
TTITLE3=
TTITLE4=
EXTD=
EXTT0=
EXTT1=
EXTT2=
EXTT3=
EXTT4=
PLAYORDER=
